<svg width="146" height="40" viewBox="0 0 146 40" fill="none" xmlns="http://www.w3.org/2000/svg">
<g id="black 1" clip-path="url(#clip0_115_832)">
<path id="Vector" d="M24.0698 23.9993L16.0703 31.9999L24.0698 40.0004L32.0693 31.9999L24.0698 23.9993Z" fill="#27AE60"/>
<path id="Vector_2" d="M40.0678 7.99959L32.0684 16.0001L40.0678 24.0007L48.0673 16.0001L40.0678 7.99959Z" fill="#27AE60"/>
<path id="Vector_3" d="M8.07227 8.00012L0.0722656 16.0001L8.07227 24.0001L16.0723 16.0001L8.07227 8.00012Z" fill="#27AE60"/>
<path id="Vector_4" d="M8.07129 7.99985H24.0692L40.067 23.9999H24.0692L8.07129 7.99985Z" fill="#2EB1FC"/>
<path id="Vector_5" d="M15.2703 16.8L8.07129 7.99994L16.0702 16L15.2703 16.8Z" fill="#219653"/>
<path id="Vector_6" d="M32.8678 15.1999L40.0668 23.9999L32.0679 15.9999L32.8678 15.1999Z" fill="#219653"/>
<g id="Clip path group">
<mask id="mask0_115_832" style="mask-type:luminance" maskUnits="userSpaceOnUse" x="56" y="11" width="90" height="26">
<g id="clip0_63_1169">
<path id="Vector_7" d="M145.928 11.0822H56.7651V36.8552H145.928V11.0822Z" fill="white"/>
</g>
</mask>
<g mask="url(#mask0_115_832)">
<g id="Group">
<path id="Vector_8" d="M63.1546 15.8628C64.0908 15.963 64.9724 16.777 64.9724 18.1432C64.9724 19.713 63.9625 20.8177 61.914 20.8177H57.2109V11.0822H61.8114C63.5842 11.0822 64.6806 12.1417 64.6806 13.7116C64.6806 14.9454 63.8599 15.6884 63.1514 15.8047V15.8628H63.1546ZM58.7561 15.2975H61.6414C62.5648 15.2975 63.1835 14.7032 63.1835 13.8019C63.1835 12.975 62.5487 12.4227 61.6542 12.4227H58.7561V15.3007V15.2975ZM61.7569 19.4837C62.7956 19.4837 63.3854 18.8893 63.3854 18.001C63.3854 17.1129 62.7378 16.5476 61.7985 16.5476H58.7561V19.4837H61.7569Z" fill="#333333"/>
<path id="Vector_9" d="M73.4529 17.578H67.6559C67.8001 18.9152 68.7653 19.713 69.8202 19.713C70.6122 19.713 71.4201 19.4805 71.9267 18.463L73.2669 18.7537C72.677 20.2654 71.4072 21.0212 69.8202 21.0212C67.8739 21.0212 66.1714 19.5095 66.1714 17.2291C66.1714 14.9486 67.8579 13.4079 69.8778 13.4079C71.8979 13.4079 73.3824 14.8905 73.456 17.0546V17.578H73.4529ZM67.6976 16.5024H71.9074C71.6766 15.3266 70.8558 14.7451 69.8747 14.7451C68.8935 14.7451 67.9284 15.3395 67.6976 16.5024Z" fill="#333333"/>
<path id="Vector_10" d="M79.871 20.469C79.1944 20.876 78.7039 21.0212 78.098 21.0212C76.5557 21.0212 75.5169 20.1491 75.5169 18.363V14.8615H73.9746V13.6114H75.5169V11.373H77.0173V13.6114H79.4703V14.8615H77.0173V18.2628C77.0173 19.164 77.4919 19.6 78.2005 19.6C78.5756 19.6 79.0374 19.4546 79.4125 19.2092L79.8742 20.4721L79.871 20.469Z" fill="#333333"/>
<path id="Vector_11" d="M85.8403 20.469C85.1638 20.876 84.6732 21.0212 84.0672 21.0212C82.5249 21.0212 81.4861 20.1491 81.4861 18.363V14.8615H79.9438V13.6114H81.4861V11.373H82.9867V13.6114H85.4395V14.8615H82.9867V18.2628C82.9867 19.164 83.4613 19.6 84.1699 19.6C84.545 19.6 85.0066 19.4546 85.3818 19.2092L85.8435 20.4721L85.8403 20.469Z" fill="#333333"/>
<path id="Vector_12" d="M93.5281 17.578H87.7311C87.8753 18.9152 88.8405 19.713 89.8954 19.713C90.6874 19.713 91.4953 19.4805 92.0019 18.463L93.3421 18.7537C92.7522 20.2654 91.4824 21.0212 89.8954 21.0212C87.9491 21.0212 86.2466 19.5095 86.2466 17.2291C86.2466 14.9486 87.9331 13.4079 89.9531 13.4079C91.9731 13.4079 93.4576 14.8905 93.5314 17.0546V17.578H93.5281ZM87.7728 16.5024H91.9826C91.7518 15.3266 90.931 14.7451 89.9499 14.7451C88.9687 14.7451 88.0036 15.3395 87.7728 16.5024Z" fill="#333333"/>
<path id="Vector_13" d="M99.9168 13.5824L99.8174 15.0358C99.7021 15.023 99.5289 15.023 99.4007 15.023C97.5827 15.023 96.6881 16.3021 96.6881 18.279V20.821H95.1875V13.6114H96.6881V15.1522C97.2653 14.1929 98.1726 13.5243 99.4135 13.5243C99.5866 13.5243 99.7309 13.5243 99.9168 13.5824Z" fill="#333333"/>
<path id="Vector_14" d="M102.789 15.3815H107.778V16.7898H102.789V20.8145H101.247V11.0822H108.314V12.4906H102.789V15.3815Z" fill="#333333"/>
<path id="Vector_15" d="M116.303 20.8177H114.802V19.9327C114.225 20.6304 113.388 21.0212 112.336 21.0212C110.605 21.0212 109.467 19.7713 109.467 17.9559V13.6114H110.967V17.6523C110.967 18.8281 111.644 19.6291 112.683 19.6291C113.965 19.6291 114.802 18.757 114.802 16.9416V13.6114H116.303V20.8177Z" fill="#333333"/>
<path id="Vector_16" d="M123.34 20.469C122.663 20.876 122.173 21.0212 121.567 21.0212C120.024 21.0212 118.985 20.1491 118.985 18.363V14.8615H117.443V13.6114H118.985V11.373H120.486V13.6114H122.939V14.8615H120.486V18.2628C120.486 19.164 120.961 19.6 121.669 19.6C122.044 19.6 122.506 19.4546 122.881 19.2092L123.343 20.4721L123.34 20.469Z" fill="#333333"/>
<path id="Vector_17" d="M131.056 20.8177H129.556V19.9327C128.978 20.6304 128.142 21.0212 127.09 21.0212C125.358 21.0212 124.22 19.7713 124.22 17.9559V13.6114H125.721V17.6523C125.721 18.8281 126.397 19.6291 127.436 19.6291C128.719 19.6291 129.556 18.757 129.556 16.9416V13.6114H131.056V20.8177Z" fill="#333333"/>
<path id="Vector_18" d="M138.067 13.5824L137.968 15.0358C137.853 15.023 137.679 15.023 137.551 15.023C135.734 15.023 134.838 16.3021 134.838 18.279V20.821H133.337V13.6114H134.838V15.1522C135.415 14.1929 136.323 13.5243 137.564 13.5243C137.737 13.5243 137.881 13.5243 138.067 13.5824Z" fill="#333333"/>
<path id="Vector_19" d="M145.929 17.578H140.132C140.275 18.9152 141.241 19.713 142.296 19.713C143.088 19.713 143.896 19.4805 144.402 18.463L145.742 18.7537C145.153 20.2654 143.883 21.0212 142.296 21.0212C140.349 21.0212 138.647 19.5095 138.647 17.2291C138.647 14.9486 140.334 13.4079 142.353 13.4079C144.374 13.4079 145.859 14.8905 145.932 17.0546V17.578H145.929ZM140.173 16.5024H144.383C144.152 15.3266 143.332 14.7451 142.351 14.7451C141.369 14.7451 140.404 15.3395 140.173 16.5024Z" fill="#333333"/>
<path id="Vector_20" d="M66.6873 28.8607C66.7001 29.1223 66.7162 29.3549 66.7162 29.5293C66.7162 32.3912 64.7126 34.5844 61.8433 34.5844C58.974 34.5844 56.7651 32.3653 56.7651 29.5164C56.7651 26.6674 58.9708 24.4452 61.7984 24.4452C63.8597 24.4452 65.7063 25.4465 66.3988 27.3231L65.0011 27.8173C64.3246 26.422 63.0967 25.9148 61.7984 25.9148C59.8524 25.9148 58.3361 27.4846 58.3361 29.5196C58.3361 31.5545 59.878 33.1244 61.885 33.1244C63.6578 33.1244 64.9145 31.9777 65.203 30.2916H61.3656V28.8672H66.6873V28.8607Z" fill="#333333"/>
<path id="Vector_21" d="M73.2791 27.1487L73.1797 28.6023C73.0644 28.5894 72.8912 28.5894 72.7629 28.5894C70.9449 28.5894 70.0504 29.8685 70.0504 31.8453V34.3873H68.5498V27.1811H70.0504V28.7218C70.6275 27.7625 71.5349 27.0938 72.7757 27.0938C72.9489 27.0938 73.0932 27.0938 73.2791 27.152V27.1487Z" fill="#333333"/>
<path id="Vector_22" d="M81.5272 30.7794C81.5272 33.0178 79.8121 34.5586 77.7058 34.5586C75.5996 34.5586 73.8555 33.0178 73.8555 30.7794C73.8555 28.541 75.5866 27.0163 77.7058 27.0163C79.8249 27.0163 81.5272 28.541 81.5272 30.7794ZM80.0717 30.7794C80.0717 29.2839 78.9336 28.3083 77.7058 28.3083C76.4779 28.3083 75.327 29.2806 75.327 30.7794C75.327 32.2782 76.4523 33.2503 77.7058 33.2503C78.9593 33.2503 80.0717 32.2782 80.0717 30.7794Z" fill="#333333"/>
<path id="Vector_23" d="M89.8671 34.3841H88.3665V33.499C87.7894 34.1968 86.9525 34.5876 85.9009 34.5876C84.1695 34.5876 83.0312 33.3376 83.0312 31.5222V27.1777H84.5318V31.2154C84.5318 32.3911 85.2083 33.1922 86.2472 33.1922C87.5298 33.1922 88.3665 32.3201 88.3665 30.5047V27.1777H89.8671V34.3841Z" fill="#333333"/>
<path id="Vector_24" d="M99.7882 30.7793C99.7882 33.0597 98.1146 34.5876 96.2393 34.5876C95.1589 34.5876 94.2644 34.2096 93.6425 33.5572V36.8551H92.1421V27.1777H93.6425V28.0047C94.2612 27.3521 95.1557 26.9742 96.2393 26.9742C98.1146 26.9742 99.7882 28.515 99.7882 30.7825V30.7793ZM98.3327 30.7793C98.3327 29.2676 97.31 28.3082 95.9956 28.3082C94.8125 28.3082 93.6457 29.2676 93.6457 30.7793C93.6457 32.291 94.8125 33.2504 95.9956 33.2504C97.3068 33.2504 98.3327 32.3071 98.3327 30.7793Z" fill="#333333"/>
</g>
</g>
</g>
</g>
<defs>
<clipPath id="clip0_115_832">
<rect width="146" height="40" fill="white"/>
</clipPath>
</defs>
</svg>
