<svg width="20" height="20" viewBox="0 0 20 20" fill="none" xmlns="http://www.w3.org/2000/svg">
<g id="Frame">
<path id="Vector" d="M9.99984 18.3334C5.39746 18.3334 1.6665 14.6024 1.6665 10C1.6665 5.39765 5.39746 1.66669 9.99984 1.66669C14.6022 1.66669 18.3332 5.39765 18.3332 10C18.3332 14.6024 14.6022 18.3334 9.99984 18.3334ZM9.99984 16.6667C13.6818 16.6667 16.6665 13.6819 16.6665 10C16.6665 6.31812 13.6818 3.33335 9.99984 3.33335C6.31794 3.33335 3.33317 6.31812 3.33317 10C3.33317 13.6819 6.31794 16.6667 9.99984 16.6667ZM8.85142 7.01218L12.9172 9.72269C13.0703 9.82477 13.1118 10.0318 13.0096 10.1849C12.9852 10.2215 12.9538 10.2529 12.9172 10.2774L8.85142 12.9879C8.69825 13.09 8.49125 13.0486 8.38917 12.8954C8.35267 12.8407 8.33317 12.7764 8.33317 12.7105V7.28953C8.33317 7.10543 8.48242 6.9562 8.6665 6.9562C8.73234 6.9562 8.79667 6.97567 8.85142 7.01218Z" fill="#2EB1FC"/>
</g>
</svg>
