<svg width="201" height="200" viewBox="0 0 201 200" fill="none" xmlns="http://www.w3.org/2000/svg">
<g id="coozin logo 1" clip-path="url(#clip0_115_556)">
<g id="Group">
<g id="Layer 1">
<g id="Group 1">
<g id="Group_2">
<path id="Vector" fill-rule="evenodd" clip-rule="evenodd" d="M113.907 97.1435C118.197 92.8521 123.561 84.9859 120.343 78.4293C118.317 74.3769 114.145 61.6228 117.96 57.2128C117.005 63.7693 119.27 71.1589 122.37 76.6413C126.304 84.1509 119.985 94.8786 113.907 97.1435Z" stroke="#FF6600" stroke-width="0.000145587" stroke-miterlimit="2.61313" stroke-linecap="square" stroke-linejoin="round"/>
<path id="Vector_2" fill-rule="evenodd" clip-rule="evenodd" d="M113.907 97.1435C118.197 92.8521 123.561 84.9859 120.343 78.4293C118.317 74.3769 114.145 61.6228 117.96 57.2128C117.005 63.7693 119.27 71.1589 122.37 76.6413C126.304 84.1509 119.985 94.8786 113.907 97.1435Z" fill="#FF6600"/>
</g>
<g id="Group_3">
<g id="Group 1734">
<path id="Vector_3" fill-rule="evenodd" clip-rule="evenodd" d="M105.598 131.831H101.784C101.307 131.831 100.95 132.188 100.95 132.665V136.479C100.95 136.955 101.307 137.315 101.784 137.315H105.598C106.076 137.315 106.434 136.955 106.434 136.479V132.665C106.434 132.188 106.076 131.831 105.598 131.831Z" fill="#FF6600"/>
<path id="Vector_4" fill-rule="evenodd" clip-rule="evenodd" d="M94.99 131.831H98.8043C99.2805 131.831 99.6376 132.188 99.6376 132.665V136.479C99.6376 136.955 99.2805 137.315 98.8043 137.315H94.99C94.5138 137.315 94.1543 136.955 94.1543 136.479V132.665C94.1543 132.188 94.5138 131.831 94.99 131.831Z" fill="#FF6600"/>
<g id="Group_4">
<path id="Vector_5" fill-rule="evenodd" clip-rule="evenodd" d="M94.9895 143.869H98.8038C99.28 143.869 99.6371 143.511 99.6371 143.035V139.221C99.6371 138.745 99.28 138.385 98.8038 138.385H94.9895C94.5133 138.385 94.1538 138.745 94.1538 139.221V143.035C94.1538 143.511 94.5133 143.869 94.9895 143.869Z" fill="#FF6600"/>
</g>
<path id="Vector_6" fill-rule="evenodd" clip-rule="evenodd" d="M105.598 143.869H101.784C101.307 143.869 100.95 143.511 100.95 143.035V139.221C100.95 138.745 101.307 138.385 101.784 138.385H105.598C106.076 138.385 106.434 138.745 106.434 139.221V143.035C106.434 143.511 106.076 143.869 105.598 143.869Z" fill="#FF6600"/>
</g>
</g>
<g id="Group_5">
<path id="Vector_7" fill-rule="evenodd" clip-rule="evenodd" d="M110.238 117.765C109.761 117.527 109.164 117.049 108.211 116.334C107.138 115.499 104.278 112.996 102.133 111.684C100.94 110.97 99.3899 110.851 98.0804 111.684C97.0066 112.52 96.2899 113.115 95.2185 113.951L67.3257 134.81C64.8233 136.837 62.9162 137.194 65.0614 139.934C65.659 140.77 66.3733 141.603 66.9686 142.439C68.7566 144.822 68.9947 146.253 72.0947 143.987C78.5304 139.22 84.9685 134.332 91.5233 129.565C93.6685 128.015 95.8137 126.346 97.8423 124.677C99.8685 123.01 100.226 123.01 102.371 124.439C104.278 125.751 106.066 127.182 107.973 128.494C113.695 132.903 120.249 137.194 125.733 141.841C126.566 142.558 127.402 143.034 128.235 143.749C130.859 145.896 131.454 145.537 132.766 143.749C133.599 142.558 134.792 141.365 135.507 140.172C136.102 139.22 136.58 138.149 136.102 137.313C135.745 136.718 128.592 131.353 125.614 129.208C124.78 128.61 120.607 125.513 120.368 125.275C120.011 124.799 120.011 124.082 120.011 122.294V101.434C120.011 100.72 120.011 100.839 119.416 100.839H112.026C111.43 100.839 111.311 100.72 111.311 101.315V116.81C111.192 117.527 111.311 118.241 110.238 117.765Z" fill="#FF6600"/>
</g>
<g id="Group_6">
<path id="Vector_8" fill-rule="evenodd" clip-rule="evenodd" d="M95.0825 0.236875C85.6659 1.19164 79.4683 4.05116 73.0302 8.22259C66.2373 12.6345 61.2302 19.4297 57.535 26.5797C55.985 29.6797 54.6754 29.0821 50.2636 30.7512C27.0207 39.0964 14.3874 64.4845 22.0136 88.5607C24.6374 96.9059 30.5969 105.846 37.6302 110.613C42.754 114.07 46.5683 116.096 52.8874 118.004C55.1516 118.718 57.2969 118.361 57.654 120.744C58.1326 122.892 58.3683 125.156 58.7278 127.301C59.085 129.208 58.9659 132.306 60.754 132.544C61.9445 132.665 68.023 128.134 68.3826 126.944C68.7397 125.751 68.3826 123.725 67.6659 118.48C67.0707 113.115 67.0707 110.97 66.4754 110.018C65.8802 109.182 64.9254 109.182 62.4231 108.706C51.4564 106.442 40.4898 100.363 36.1993 89.7535C29.8826 74.1393 34.1731 55.6631 46.8088 46.0083C51.8135 42.194 55.8659 40.4059 62.185 38.7369C66.2373 37.6654 65.0445 33.8512 71.9588 25.8655C78.8706 17.8774 88.7659 12.7535 100.325 12.9916C111.89 12.7535 121.782 17.8774 128.694 25.8655C135.609 33.8512 134.297 37.6654 138.468 38.7369C144.787 40.4059 148.84 42.194 153.847 46.0083C166.599 55.6631 170.892 74.0202 164.454 89.7535C160.163 100.363 149.197 106.442 138.23 108.706C135.728 109.182 134.656 109.182 134.178 110.018C133.582 110.97 133.582 113.115 132.987 118.48C132.39 123.725 131.913 125.751 132.271 126.944C132.628 128.134 138.828 132.665 139.899 132.544C141.806 132.306 141.687 129.208 141.925 127.301C142.285 125.156 142.523 122.892 142.999 120.744C143.475 118.48 145.501 118.718 147.766 118.004C154.085 116.215 158.018 114.07 163.023 110.613C170.056 105.846 176.016 96.7869 178.639 88.5607C186.149 64.4845 173.513 39.0964 150.39 30.7512C145.98 29.2035 144.668 29.6797 143.118 26.5797C139.423 19.4297 134.418 12.6345 127.623 8.22259C121.306 4.05116 114.987 1.19164 105.571 0.236875C103.782 -0.0012198 101.994 -0.0012207 100.325 -0.0012207C98.6587 -0.0012207 96.8706 -0.0012198 95.0825 0.236875Z" fill="#FF6600"/>
</g>
</g>
<g id="Group 2">
<g id="Group_7">
<path id="Vector_9" d="M116.969 197.329C116.375 197.329 115.892 197.103 115.52 196.65C114.367 195.247 115.208 194.566 116.058 193.469L133.688 170.731C133.921 170.431 133.847 169.99 133.579 169.728C133.296 169.481 132.873 169.525 132.641 169.825L131.04 171.891H119.032C117.954 171.891 117.127 171.517 116.551 170.769C115.975 170.021 115.687 169.038 115.687 167.818H136.646C137.277 167.818 137.769 168.015 138.123 168.408C138.476 168.802 138.652 169.294 138.652 169.884C138.652 170.434 138.485 170.946 138.151 171.418L122.051 192.108H119.167C118.8 192.108 118.5 192.426 118.5 192.814C118.5 193.202 118.8 193.52 119.167 193.52H136.865C137.295 193.706 137.659 193.993 137.955 194.378C138.531 195.126 138.819 196.109 138.819 197.329H116.969Z" stroke="black" stroke-width="0.00029902" stroke-miterlimit="2.61313"/>
</g>
<g id="Group_8">
<path id="Vector_10" fill-rule="evenodd" clip-rule="evenodd" d="M116.967 197.329C116.372 197.329 115.891 197.103 115.519 196.65C114.365 195.246 115.205 194.567 116.057 193.469L133.686 170.729C133.919 170.429 133.846 169.989 133.579 169.727C133.293 169.481 132.872 169.524 132.641 169.824L131.038 171.891H119.029C117.953 171.891 117.126 171.517 116.55 170.767C115.974 170.02 115.686 169.036 115.686 167.817H136.643C137.276 167.817 137.767 168.015 138.122 168.408C138.474 168.8 138.65 169.293 138.65 169.884C138.65 170.434 138.484 170.946 138.148 171.417L122.048 192.108H119.165C118.798 192.108 118.498 192.424 118.498 192.815C118.498 193.203 118.798 193.519 119.165 193.519H136.862C137.293 193.705 137.657 193.993 137.955 194.377C138.529 195.124 138.817 196.108 138.817 197.329H116.967Z" fill="black"/>
</g>
<g id="Group_9">
<path id="Vector_11" d="M162.336 172.138C162.336 169.299 163.901 167.858 167.17 167.858C167.157 168.923 167.174 169.451 167.18 169.81C167.207 171.146 170.469 167.65 176.871 167.879C180.02 167.991 182.514 168.799 184.343 170.641C186.172 172.483 187.086 174.862 187.086 177.779V194.01C187.086 195.277 186.668 196.207 185.831 196.802C184.994 197.397 183.72 197.694 182.008 197.694V178.297C182.008 176.454 181.482 174.997 180.431 173.922C179.381 172.848 177.786 172.31 175.645 172.31C174.206 172.31 172.853 172.608 171.589 173.203C170.324 173.798 169.312 174.603 168.553 175.621C167.794 176.637 167.415 177.74 167.415 178.93V194.01C167.415 195.277 166.997 196.207 166.16 196.802C165.323 197.397 164.049 197.694 162.336 197.694V172.138Z" stroke="black" stroke-width="0.000446468" stroke-miterlimit="2.61313"/>
</g>
<g id="Group_10">
<path id="Vector_12" d="M162.34 172.137C162.34 169.297 163.905 167.856 167.174 167.856C167.162 168.923 167.178 169.449 167.186 169.809C167.212 171.145 170.474 167.649 176.876 167.878C180.024 167.99 182.519 168.797 184.347 170.64C186.176 172.483 187.09 174.861 187.09 177.778V194.009C187.09 195.276 186.671 196.206 185.836 196.802C185 197.397 183.724 197.695 182.012 197.695V178.297C182.012 176.454 181.486 174.995 180.436 173.921C179.386 172.847 177.79 172.309 175.65 172.309C174.209 172.309 172.857 172.606 171.593 173.202C170.328 173.797 169.316 174.602 168.557 175.618C167.797 176.635 167.419 177.74 167.419 178.928V194.009C167.419 195.276 167 196.206 166.164 196.802C165.328 197.397 164.052 197.695 162.34 197.695V172.137Z" fill="black"/>
</g>
<g id="Group_11">
<path id="Vector_13" d="M34.2068 192.347C24.8355 192.347 19.6037 184.701 19.6037 176.882C19.6037 169.063 24.8355 161.416 34.2068 161.416C38.5761 161.416 42.0831 163.084 44.5553 165.671C45.0728 166.188 45.8774 166.303 46.5098 165.901L48.6945 164.464C49.4998 163.946 49.6724 162.796 48.9821 162.106C45.3604 158.312 40.186 156.012 34.2068 156.012C22.3062 156.012 13.7393 165.096 13.7393 176.882C13.7393 188.668 22.3062 197.694 34.2068 197.694C40.186 197.694 45.3604 195.395 48.9821 191.657C49.6724 190.968 49.4998 189.818 48.6945 189.301L46.5098 187.863C45.8774 187.403 45.0728 187.518 44.5553 188.093C42.0831 190.68 38.5761 192.347 34.2068 192.347Z" stroke="black" stroke-width="0.00058021" stroke-miterlimit="2.61313"/>
</g>
<g id="Group_12">
<path id="Vector_14" d="M34.2054 192.347C24.834 192.347 19.603 184.702 19.603 176.883C19.603 169.064 24.834 161.416 34.2054 161.416C38.5744 161.416 42.0816 163.085 44.553 165.671C45.0721 166.188 45.8768 166.304 46.5078 165.902L48.6935 164.464C49.4982 163.947 49.6697 162.797 48.9792 162.107C45.3578 158.312 40.184 156.014 34.2054 156.014C22.3054 156.014 13.7388 165.097 13.7388 176.883C13.7388 188.669 22.3054 197.695 34.2054 197.695C40.184 197.695 45.3578 195.395 48.9792 191.659C49.6697 190.969 49.4982 189.819 48.6935 189.302L46.5078 187.864C45.8768 187.404 45.0721 187.519 44.553 188.095C42.0816 190.681 38.5744 192.347 34.2054 192.347Z" fill="black"/>
</g>
<g id="Group_13">
<path id="Vector_15" d="M147.763 170.975C147.763 169.945 148.204 169.145 149.087 168.574C149.969 168.004 151.221 167.719 152.841 167.719V194.438C152.841 195.467 152.401 196.267 151.518 196.838C150.636 197.409 149.384 197.694 147.763 197.694V170.975Z" stroke="black" stroke-width="0.000434978" stroke-miterlimit="2.61313"/>
</g>
<g id="Group_14">
<path id="Vector_16" d="M147.756 170.975C147.756 169.946 148.199 169.146 149.08 168.575C149.963 168.006 151.213 167.72 152.835 167.72V194.437C152.835 195.468 152.394 196.268 151.511 196.839C150.63 197.408 149.378 197.694 147.756 197.694V170.975Z" fill="black"/>
</g>
<g id="Group_15">
<path id="Vector_17" d="M97.3186 197.694C94.9564 197.694 92.8175 197.249 90.9006 196.358C88.984 195.468 87.4931 194.257 86.4281 192.728C85.3631 191.198 84.8306 189.485 84.8306 187.587V178.062C84.8306 176.126 85.3631 174.364 86.4281 172.776C87.4931 171.189 88.974 169.93 90.8716 169.001C92.769 168.071 94.918 167.607 97.3186 167.607C99.7192 167.607 101.878 168.071 103.795 169.001C105.712 169.93 107.203 171.189 108.267 172.776C109.332 174.364 109.864 176.126 109.864 178.062V187.587C109.864 189.485 109.323 191.198 108.238 192.728C107.154 194.257 105.663 195.468 103.766 196.358C101.868 197.249 99.7192 197.694 97.3186 197.694ZM97.3186 193.338C99.6423 193.338 101.491 192.786 102.866 191.682C104.24 190.578 104.928 189.136 104.928 187.355V178.236C104.928 177.089 104.666 176.076 104.143 175.195L106.01 172.815C106.179 172.6 106.141 172.286 105.926 172.117C105.71 171.948 105.397 171.986 105.228 172.201L103.534 174.359C103.333 174.13 103.11 173.913 102.866 173.706C101.491 172.544 99.6423 171.963 97.3186 171.963C95.0339 171.963 93.1949 172.544 91.8009 173.706C90.4068 174.867 89.7096 176.377 89.7096 178.236V187.355C89.7096 188.623 90.0584 189.72 90.7556 190.644L88.9651 192.926C88.7964 193.142 88.8341 193.456 89.0495 193.625C89.2647 193.794 89.5793 193.756 89.748 193.541L91.4339 191.392C91.542 191.491 91.654 191.588 91.7721 191.682C93.1461 192.786 94.9955 193.338 97.3186 193.338Z" stroke="#FF6600" stroke-width="0.000102511" stroke-miterlimit="2.61313"/>
</g>
<g id="Group_16">
<path id="Vector_18" fill-rule="evenodd" clip-rule="evenodd" d="M97.3186 197.694C94.9567 197.694 92.8163 197.249 90.8996 196.358C88.9829 195.468 87.4925 194.258 86.4282 192.727C85.3615 191.199 84.8306 189.484 84.8306 187.587V178.063C84.8306 176.127 85.3615 174.363 86.4282 172.777C87.4925 171.189 88.9734 169.93 90.871 169.001C92.7686 168.072 94.9163 167.608 97.3186 167.608C99.7186 167.608 101.878 168.072 103.795 169.001C105.711 169.93 107.202 171.189 108.266 172.777C109.331 174.363 109.864 176.127 109.864 178.063V187.587C109.864 189.484 109.321 191.199 108.238 192.727C107.154 194.258 105.661 195.468 103.766 196.358C101.869 197.249 99.7186 197.694 97.3186 197.694ZM97.3186 193.337C99.6424 193.337 101.49 192.787 102.864 191.682C104.24 190.58 104.926 189.137 104.926 187.356V178.237C104.926 177.089 104.664 176.077 104.142 175.196L106.009 172.815C106.178 172.601 106.14 172.287 105.926 172.118C105.709 171.949 105.395 171.987 105.228 172.201L103.533 174.361C103.333 174.13 103.109 173.913 102.864 173.706C101.49 172.544 99.6424 171.963 97.3186 171.963C95.0329 171.963 93.1948 172.544 91.7996 173.706C90.4067 174.868 89.7091 176.377 89.7091 178.237V187.356C89.7091 188.622 90.0567 189.72 90.7544 190.644L88.9639 192.927C88.7948 193.141 88.8329 193.456 89.0496 193.625C89.2639 193.794 89.5782 193.756 89.7472 193.541L91.4329 191.391C91.5425 191.491 91.6544 191.589 91.771 191.682C93.1448 192.787 94.9948 193.337 97.3186 193.337Z" fill="#FF6600"/>
</g>
<g id="Group_17">
<path id="Vector_19" d="M67.1223 197.694C64.7601 197.694 62.6204 197.249 60.7038 196.358C58.787 195.468 57.2961 194.257 56.2318 192.728C55.1668 191.198 54.6343 189.485 54.6343 187.587V178.062C54.6343 176.126 55.1668 174.364 56.2318 172.776C57.2961 171.189 58.7777 169.93 60.6748 169.001C62.5719 168.071 64.7214 167.607 67.1223 167.607C69.5229 167.607 71.6812 168.071 73.5981 169.001C75.5149 169.93 77.0056 171.189 78.0706 172.776C79.1359 174.364 79.6681 176.126 79.6681 178.062V187.587C79.6681 189.485 79.1255 191.198 78.0418 192.728C76.9571 194.257 75.4669 195.468 73.569 196.358C71.6719 197.249 69.5229 197.694 67.1223 197.694ZM67.1223 193.338C69.4453 193.338 71.2945 192.786 72.6687 191.682C74.0434 190.578 74.7313 189.136 74.7313 187.355V178.236C74.7313 177.089 74.4693 176.076 73.9464 175.195L75.8138 172.815C75.9824 172.6 75.9447 172.286 75.7293 172.117C75.5142 171.948 75.1995 171.986 75.0309 172.201L73.3376 174.359C73.1364 174.13 72.9136 173.913 72.6687 173.706C71.2945 172.544 69.4453 171.963 67.1223 171.963C64.8376 171.963 62.9983 172.544 61.6042 173.706C60.2105 174.867 59.5133 176.377 59.5133 178.236V187.355C59.5133 188.623 59.8621 189.72 60.5586 190.644L58.7688 192.926C58.5994 193.142 58.6378 193.456 58.8532 193.625C59.0684 193.794 59.3823 193.756 59.5517 193.541L61.2376 191.392C61.3449 191.491 61.4577 191.588 61.5751 191.682C62.9498 192.786 64.7985 193.338 67.1223 193.338Z" stroke="#FF6600" stroke-width="0.000102511" stroke-miterlimit="2.61313"/>
</g>
<g id="Group_18">
<path id="Vector_20" fill-rule="evenodd" clip-rule="evenodd" d="M67.1194 197.694C64.7575 197.694 62.6194 197.248 60.7028 196.358C58.7861 195.467 57.2932 194.258 56.229 192.727C55.1647 191.198 54.6313 189.484 54.6313 187.586V178.063C54.6313 176.127 55.1647 174.363 56.229 172.777C57.2932 171.189 58.7766 169.929 60.6718 169.001C62.5694 168.072 64.7194 167.608 67.1194 167.608C69.5218 167.608 71.6789 168.072 73.5956 169.001C75.5123 169.929 77.0027 171.189 78.0694 172.777C79.1337 174.363 79.667 176.127 79.667 178.063V187.586C79.667 189.484 79.1242 191.198 78.0408 192.727C76.9551 194.258 75.4646 195.467 73.567 196.358C71.6694 197.248 69.5218 197.694 67.1194 197.694ZM67.1194 193.336C69.4432 193.336 71.2932 192.786 72.667 191.682C74.0408 190.579 74.7289 189.136 74.7289 187.356V178.236C74.7289 177.089 74.467 176.077 73.9432 175.196L75.8123 172.815C75.9813 172.601 75.9432 172.286 75.7266 172.117C75.5123 171.948 75.198 171.986 75.0289 172.201L73.3361 174.36C73.1337 174.129 72.9123 173.913 72.667 173.706C71.2932 172.544 69.4432 171.963 67.1194 171.963C64.8361 171.963 62.9956 172.544 61.6028 173.706C60.2075 174.867 59.5123 176.377 59.5123 178.236V187.356C59.5123 188.622 59.8599 189.72 60.5575 190.644L58.7671 192.927C58.598 193.141 58.6361 193.456 58.8504 193.625C59.0671 193.794 59.3813 193.756 59.5504 193.541L61.2361 191.391C61.3432 191.491 61.4551 191.589 61.5718 191.682C62.948 192.786 64.7956 193.336 67.1194 193.336Z" fill="#FF6600"/>
</g>
</g>
</g>
</g>
</g>
<defs>
<clipPath id="clip0_115_556">
<rect width="200" height="200" fill="white" transform="translate(0.858887)"/>
</clipPath>
</defs>
</svg>
