<svg width="134" height="133" viewBox="0 0 134 133" fill="none" xmlns="http://www.w3.org/2000/svg">
<g id="Group">
<path id="Vector" d="M66.5364 132.353C30.2808 132.083 1.03372 102.836 0.76416 66.5808C0.76416 66.446 0.76416 66.3112 0.76416 66.1764C0.76416 66.0416 0.76416 65.9069 0.76416 65.7721C1.03372 57.6853 7.63789 51.2159 15.7246 51.2159C23.9462 51.2159 30.5503 57.8201 30.6851 66.0416V66.1764V66.3112C30.8199 86.2585 46.9934 102.432 66.9407 102.432C58.7192 102.432 51.9802 109.171 51.9802 117.392C51.9802 125.479 58.4496 132.083 66.5364 132.353Z" fill="url(#paint0_linear_115_190)"/>
<path id="Vector_2" d="M133.119 66.581C132.849 102.837 103.602 132.084 67.3468 132.353C67.212 132.353 67.0772 132.353 66.9424 132.353C66.8076 132.353 66.6729 132.353 66.5381 132.353C58.4513 132.084 51.9819 125.479 51.9819 117.393C51.9819 109.171 58.7209 102.432 66.9424 102.432C87.0245 102.432 103.198 86.1239 103.198 66.1766C103.198 74.3982 109.937 81.1371 118.158 81.1371C126.245 81.1371 132.849 74.5329 133.119 66.581Z" fill="url(#paint1_linear_115_190)"/>
<path id="Vector_3" d="M133.116 66.1765C133.116 66.3113 133.116 66.446 133.116 66.5808C132.847 74.6676 126.243 81.1369 118.156 81.1369C109.934 81.1369 103.196 74.398 103.196 66.1765C103.196 46.2292 87.022 29.9209 67.0747 29.9209C75.2962 29.7861 81.9004 23.182 81.9004 14.9605C81.9004 6.87374 75.431 0.269558 67.3443 0C103.6 0.269558 132.847 29.5166 133.116 65.7721C133.116 65.9069 133.116 66.0417 133.116 66.1765Z" fill="url(#paint2_linear_115_190)"/>
<path id="Vector_4" d="M81.9012 14.9605C81.9012 23.182 75.297 29.7861 67.0755 29.9209H66.9407H66.8059C46.8586 30.0557 30.6851 46.0944 30.6851 66.0417C30.5503 57.8202 23.9462 51.216 15.7246 51.216C7.63789 51.216 1.03372 57.6854 0.76416 65.7721C1.03372 29.5166 30.2808 0.269558 66.5364 0C66.6712 0 66.8059 0 66.9407 0C67.0755 0 67.2103 0 67.345 0C75.4318 0.134779 81.9012 6.73896 81.9012 14.9605Z" fill="url(#paint3_linear_115_190)"/>
</g>
<defs>
<linearGradient id="paint0_linear_115_190" x1="33.8356" y1="34.2477" x2="33.8356" y2="138.68" gradientUnits="userSpaceOnUse">
<stop stop-color="#00CC3E"/>
<stop offset="1" stop-color="#00842C"/>
</linearGradient>
<linearGradient id="paint1_linear_115_190" x1="37.149" y1="99.2173" x2="140.329" y2="99.2173" gradientUnits="userSpaceOnUse">
<stop stop-color="#00CC3E"/>
<stop offset="1" stop-color="#00842C"/>
</linearGradient>
<linearGradient id="paint2_linear_115_190" x1="100.066" y1="95.4486" x2="100.066" y2="-6.67263" gradientUnits="userSpaceOnUse">
<stop stop-color="#00CC3E"/>
<stop offset="1" stop-color="#00842C"/>
</linearGradient>
<linearGradient id="paint3_linear_115_190" x1="96.457" y1="32.9857" x2="-5.83233" y2="32.9857" gradientUnits="userSpaceOnUse">
<stop stop-color="#00CC3E"/>
<stop offset="1" stop-color="#00842C"/>
</linearGradient>
</defs>
</svg>
