<svg width="134" height="133" viewBox="0 0 134 133" fill="none" xmlns="http://www.w3.org/2000/svg">
<path id="Vector" fill-rule="evenodd" clip-rule="evenodd" d="M66.9457 0C100.128 0 127.611 24.3751 132.434 56.1811C128.418 54.3992 124.268 52.9584 120.024 51.8727C116.867 51.0628 113.662 50.4492 110.423 50.039C103.864 32.4126 86.8731 19.8529 66.9457 19.8529C41.3364 19.8529 20.5776 40.5918 20.5776 66.1765C20.5776 81.3074 27.8364 94.7428 39.0697 103.197C40.9844 98.4547 43.4478 93.9326 46.425 89.7278C52.604 81.0042 60.8013 73.9039 70.3233 69.0338C79.8453 64.1636 90.4059 61.6717 101.101 61.7682C105.179 61.8061 109.233 62.2162 113.207 62.9918C119.658 64.2497 125.91 66.4695 131.744 69.5852C132.186 69.8197 132.624 70.0608 133.058 70.3055C130.926 104.931 102.143 132.353 66.9457 132.353C30.3619 132.353 0.705566 102.725 0.705566 66.1765C0.705566 29.6279 30.3619 0 66.9457 0ZM110.292 82.662C107.225 82.0002 104.085 81.6486 100.925 81.6212C93.4349 81.5521 86.045 83.2961 79.3796 86.705C72.7142 90.1137 66.9733 95.084 62.6504 101.191C60.3908 104.383 58.5518 107.84 57.1684 111.469C60.3217 112.145 63.5923 112.5 66.9457 112.5C86.7419 112.5 103.64 100.106 110.292 82.662Z" fill="#007E27"/>
</svg>
