<svg width="244" height="106" viewBox="0 0 244 106" fill="none" xmlns="http://www.w3.org/2000/svg">
<g id="Frame" clip-path="url(#clip0_115_630)">
<g id="Group">
<g id="Group_2">
<path id="Vector" d="M204.204 63.9586L202.087 61.3513C198.911 57.522 194.84 54.5074 189.874 52.3075C187.675 51.3298 185.233 50.515 182.546 49.8632C180.999 49.5373 179.859 49.2929 178.719 49.13C177.986 48.967 177.253 48.8855 176.521 48.8041C175.951 48.7226 175.299 48.6411 174.648 48.5596C168.46 47.7449 162.679 46.2783 157.468 44.3229C156.41 43.9155 155.351 43.5081 154.293 43.0193C154.7 46.0339 155.025 48.8855 155.188 50.2706C155.27 51.0854 155.351 51.9001 155.433 52.6334C155.433 52.9593 155.514 53.2037 155.514 53.5297L155.677 55.4036L154.211 54.1815L150.71 51.2483L150.466 51.0039L150.384 50.678L150.222 48.967C149.977 47.0931 149.814 44.7303 149.489 42.3675C149.407 41.7157 149.326 41.0639 149.245 40.3306C146.395 38.7011 144.278 37.153 142.568 35.5235L138.416 31.6127L143.464 34.2199C145.173 35.0347 146.965 35.8494 148.837 36.6642C148.675 35.3606 148.593 34.2199 148.43 33.3237L148.349 32.5089C147.779 28.5981 147.29 24.6058 146.883 20.6134L146.395 15.4805L148.43 20.2061C149.896 23.7095 151.199 27.6204 152.501 32.5089C152.827 33.894 153.234 35.8494 153.641 38.3752C155.27 38.9455 157.061 39.4343 158.934 39.9232C163.982 41.2268 169.193 42.2045 175.055 42.8563C175.462 42.8563 175.869 42.9378 176.276 43.0193C177.335 43.1008 178.393 43.2637 179.452 43.4267C181.08 43.6711 182.709 44.0785 184.011 44.4044C187.268 45.3006 190.118 46.4413 192.56 47.9078C195.247 49.4559 197.69 51.4113 199.563 53.4482C201.68 55.8924 203.064 58.3367 203.552 60.618L204.204 63.9586Z" fill="#3FA80E"/>
</g>
</g>
<g id="Group_3">
<g id="Group_4">
<path id="Vector_2" d="M149.978 15.8879L147.291 13.851C143.301 10.8364 138.66 8.88097 133.368 7.90326C131.006 7.49588 128.482 7.25145 125.795 7.25145H125.714C124.167 7.25145 122.946 7.33293 121.806 7.41441C121.073 7.41441 120.34 7.49588 119.607 7.65883C119.038 7.74031 118.386 7.82179 117.735 7.82179C114.885 8.14769 112.035 8.22917 109.267 8.22917C106.092 8.22917 102.998 8.06621 100.066 7.65883C97.1353 7.25145 94.2855 6.68112 91.4358 5.86637C88.179 4.88866 85.6549 3.91095 83.4565 2.68881L78.5713 -0.162842L84.1079 1.14077C88.9118 2.28143 94.1227 2.93324 100.555 3.09619C101.288 3.09619 102.021 3.09619 102.835 3.09619C107.313 3.09619 111.954 2.77029 116.921 2.11848C117.328 2.037 117.735 2.037 118.142 1.95553C119.2 1.79258 120.259 1.7111 121.317 1.62963C122.376 1.54815 123.516 1.46667 124.9 1.46667C125.226 1.46667 125.551 1.46667 125.877 1.46667C129.215 1.54815 132.309 2.037 135.077 2.85176C138.09 3.748 140.858 5.05161 143.138 6.68112C145.825 8.55507 147.616 10.592 148.675 12.7103L149.978 15.8879Z" fill="#3FA80E"/>
</g>
</g>
<g id="Group_5">
<path id="Vector_3" d="M125.388 60.1291L122.62 56.5442C118.549 51.3297 114.722 47.4189 110.895 44.5672C107.72 42.2044 104.382 40.4934 100.962 39.6787C99.9034 39.4343 98.7635 39.1898 97.705 39.1084C97.5422 39.1084 97.4607 39.1084 97.3793 39.1084L96.4837 39.0269L93.5525 38.9454C93.2268 38.9454 92.8197 38.9454 92.4126 39.0269C92.1684 39.0269 91.9241 39.0269 91.6798 39.0269L90.7842 39.1084L89.8886 39.2713C87.2831 39.5157 84.6776 40.249 82.235 40.9823C79.8738 41.7156 77.4312 42.7748 74.7443 44.2413C72.3016 45.4635 69.9404 47.0115 67.4164 48.804L63.7524 51.4112L65.6251 47.3374C66.8464 44.6487 68.6377 42.0415 71.1618 39.5157C73.4415 37.1529 76.047 35.1975 78.8967 33.568C79.5481 33.1606 80.2809 32.8347 80.9323 32.5088L81.5022 32.2644C82.1536 32.02 82.7235 31.6941 83.4563 31.4496L83.782 31.3682C84.4334 31.1237 85.0847 30.8793 85.7361 30.7164C86.3875 30.5534 87.0388 30.3904 87.6902 30.2275L88.5858 29.9831C88.9115 29.9016 89.1558 29.8201 89.4815 29.8201L91.517 29.5757C92.0869 29.4942 92.6569 29.4127 93.2268 29.4127H93.3083H94.1225C93.2268 26.1537 92.2498 23.2206 91.0285 20.5319C89.1558 16.4581 87.2017 13.1991 84.9219 10.3474L79.7924 3.82935L86.876 7.65871C90.4585 9.61413 93.7968 12.7917 96.6465 17.2729C99.0077 20.9393 100.718 25.176 101.776 29.8201V29.9016C103.974 30.3905 106.173 31.2052 108.29 32.3459C111.302 33.8939 113.989 36.0123 116.35 38.538C118.549 40.9823 120.421 43.671 121.887 46.6041C123.434 49.8632 124.411 52.7963 124.818 55.7294L125.388 60.1291Z" fill="#3FA80E"/>
</g>
<g id="Group_6">
<path id="Vector_4" d="M21.658 100.297V106H18.4011C13.353 106 9.03773 104.289 5.45521 100.867C1.87268 97.445 0 93.0453 0 87.7494V52.5518C0 47.4189 4.15247 43.1821 9.36342 43.1821V59.2329H21.5766C21.5766 64.2029 17.5869 68.1952 12.6203 68.1952H9.44484V87.7494C9.44484 90.4381 10.259 92.6379 12.0503 94.3489C13.8416 96.0599 15.8771 96.9562 18.4826 96.9562C20.1924 97.0376 21.658 98.5042 21.658 100.297Z" fill="#606060"/>
</g>
<g id="Group_7">
<path id="Vector_5" d="M57.7275 64.8546V68.3581C57.7275 71.2912 54.2263 72.6763 52.1908 70.6394C50.2367 68.684 48.2012 67.7063 45.9214 67.7063C43.6416 67.7063 41.6875 68.5211 39.9777 70.3135C38.1864 72.0245 37.3722 73.9799 37.3722 76.2613V96.7117C37.3722 101.845 33.2197 106.081 28.0088 106.081V59.7217H37.3722V61.1882H37.4536C40.2219 59.5587 43.2345 58.8254 46.5728 58.8254C50.0739 58.8254 53.3307 59.9661 56.4247 62.3289C57.2389 62.8178 57.7275 63.7955 57.7275 64.8546Z" fill="#606060"/>
</g>
<g id="Group_8">
<path id="Vector_6" d="M243.368 64.8546V68.3581C243.368 71.2912 239.867 72.6763 237.831 70.6394C235.877 68.684 233.841 67.7063 231.562 67.7063C229.282 67.7063 227.328 68.5211 225.618 70.3135C223.827 72.0245 223.012 73.9799 223.012 76.2613V96.7117C223.012 101.845 218.86 106.081 213.649 106.081V59.7217H223.012V61.1882H223.094C225.862 59.5587 228.875 58.8254 232.213 58.8254C235.714 58.8254 238.971 59.9661 242.065 62.3289C242.879 62.8178 243.368 63.7955 243.368 64.8546Z" fill="#606060"/>
</g>
<g id="Group_9">
<g id="Group_10">
<path id="Vector_7" d="M109.511 53.8554V59.3958L107.883 58.1737C107.068 57.5218 106.173 56.9515 105.359 56.4627C100.962 53.9369 96.3208 52.6333 91.5984 52.6333C84.2705 52.6333 77.9197 55.2405 72.6273 60.455C67.4164 65.6694 64.7295 72.0245 64.7295 79.2759C64.7295 86.6087 67.4164 92.8823 72.6273 98.0968C77.8383 103.311 84.2705 105.918 91.5984 105.918C96.4023 105.918 100.962 104.696 105.196 102.171C106.173 101.6 107.068 101.03 107.964 100.297L109.592 98.993V104.696C114.478 104.207 118.305 100.052 118.305 95.0007V63.4696C118.223 58.4996 114.396 54.3443 109.511 53.8554ZM104.382 92.312C100.799 95.9784 96.6465 97.7709 91.6798 97.7709C86.6317 97.7709 82.4793 95.9784 78.8153 92.312C75.1514 88.6456 73.3601 84.4088 73.3601 79.4388C73.3601 74.4688 75.1514 70.2321 78.8153 66.4842C82.4793 62.7363 86.7132 60.9438 91.6798 60.9438C96.6465 60.9438 100.799 62.7363 104.382 66.4027C107.964 70.0691 109.755 74.3873 109.755 79.3573C109.755 84.4088 107.964 88.6456 104.382 92.312Z" fill="#3FA80E"/>
</g>
</g>
<g id="Group_11">
<path id="Vector_8" d="M150.385 100.297V106H147.128C142.08 106 137.764 104.289 134.182 100.867C130.599 97.445 128.727 93.0453 128.727 87.7494V52.5518C128.727 47.4189 132.879 43.1821 138.09 43.1821V59.2329H150.303C150.303 64.2029 146.314 68.1952 141.347 68.1952H138.171V87.7494C138.171 90.4381 139.067 92.6379 140.777 94.3489C142.568 96.0599 144.685 96.9562 147.209 96.9562C148.919 97.0376 150.385 98.5042 150.385 100.297Z" fill="#606060"/>
</g>
<g id="Group_12">
<path id="Vector_9" d="M194.759 67.7878C190.362 63.3881 184.989 61.1882 178.801 61.1882C172.613 61.1882 167.239 63.3881 162.842 67.7878C158.445 72.1875 156.166 77.4019 156.166 83.4311C156.166 89.3788 158.364 94.7562 162.679 99.2374C166.995 103.719 172.287 106 178.393 106H179.126C185.233 106 190.525 103.719 194.841 99.2374C199.074 94.7562 201.273 89.4603 201.273 83.5126C201.354 77.4834 199.156 72.1875 194.759 67.7878ZM192.642 83.6755C192.642 87.5049 191.339 90.7639 188.571 93.5341C185.884 96.3043 182.709 97.6894 178.882 97.6894C175.055 97.6894 171.88 96.3043 169.03 93.5341C166.262 90.7639 164.878 87.5049 164.878 83.757C164.878 79.9277 166.262 76.7501 169.03 73.817C171.798 70.9653 175.055 69.5802 178.801 69.5802C182.546 69.5802 185.721 70.9653 188.49 73.7355C191.339 76.5872 192.642 79.8462 192.642 83.6755Z" fill="#3FA80E"/>
</g>
</g>
<defs>
<clipPath id="clip0_115_630">
<rect width="243.367" height="106" fill="white"/>
</clipPath>
</defs>
</svg>
