<svg width="208" height="30" viewBox="0 0 208 30" fill="none" xmlns="http://www.w3.org/2000/svg">
<g id="Group">
<path id="Vector" d="M0 0H4.95239L10.1249 25.4105H10.7852L15.7376 0H23.0011L28.1736 25.4105H28.6138L33.4561 0H38.2985L32.2456 29.6642H24.5418L19.5895 5.26122H18.9291L14.0868 29.6642H6.27303L0 0Z" fill="#5A5A5A"/>
<path id="Vector_2" d="M43.0303 26.8656C41.1594 24.7387 40.1689 22.0521 40.1689 18.8059C40.1689 15.4477 41.1594 12.7611 43.0303 10.7461C44.9012 8.61927 47.3224 7.61182 50.1838 7.61182C51.9446 7.61182 53.5954 8.17151 55.1362 9.17898C55.7965 9.62674 56.3468 10.1864 56.897 10.7461H57.1171V7.94762H61.5193V29.5522H57.1171V26.6417H56.897C56.4568 27.2014 55.9065 27.7611 55.1362 28.3208C53.5954 29.4402 51.9446 29.9999 50.1838 29.9999C47.3224 29.9999 44.9012 28.9924 43.0303 26.8656ZM46.442 13.4327C45.3414 14.6641 44.7912 16.4551 44.7912 18.8059C44.7912 21.1566 45.3414 22.9477 46.442 24.179C47.5425 25.4104 49.0832 26.082 51.0642 26.082C52.9351 26.082 54.3658 25.4104 55.4663 24.179C56.5669 22.9477 57.1171 21.1566 57.1171 18.9178C57.1171 16.679 56.5669 14.8879 55.4663 13.6566C54.3658 12.4253 52.9351 11.7536 51.0642 11.7536C49.0832 11.6417 47.5425 12.2014 46.442 13.4327Z" fill="#5A5A5A"/>
<path id="Vector_3" d="M65.8115 22.8357H70.6539C70.874 23.3954 71.2041 23.9551 71.6443 24.4029C72.6348 25.4104 74.0655 25.9701 75.8264 25.9701C77.3671 25.9701 78.4676 25.7462 79.128 25.2984C79.7883 24.8506 80.1184 24.179 80.1184 23.5074C80.1184 23.2835 80.0084 23.0596 79.8983 22.8357C79.7883 22.6119 79.5682 22.388 79.3481 22.276C79.0179 22.0522 78.7978 21.9402 78.5777 21.8282C78.3576 21.7163 77.9174 21.6044 77.4772 21.4924C77.0369 21.3805 76.5967 21.2686 76.2666 21.1566C75.9364 21.0447 75.4962 20.9327 74.8359 20.8208C74.1756 20.7088 73.7353 20.5969 73.4052 20.485C69.0031 19.4775 66.6919 17.3506 66.6919 13.9924C66.6919 12.3133 67.4623 10.8581 69.0031 9.51479C70.5438 8.28344 72.5248 7.61182 75.056 7.61182C78.5777 7.61182 81.1089 8.73122 82.8698 10.97C83.6401 11.9775 84.1904 13.0969 84.4105 14.3282H79.7883C79.5682 13.7685 79.238 13.3208 78.9078 12.9849C77.9174 12.0894 76.5967 11.6417 75.056 11.6417C73.8454 11.6417 72.8549 11.8655 72.1946 12.3133C71.5343 12.7611 71.2041 13.3208 71.2041 13.9924C71.2041 14.2163 71.3142 14.4402 71.4242 14.6641C71.5343 14.8879 71.7544 15.1118 71.9745 15.2238C72.3047 15.4476 72.5248 15.5596 72.7449 15.6715C72.965 15.7835 73.4052 15.8954 73.8454 16.0074C74.2856 16.1193 74.7258 16.2312 75.056 16.3432C75.3861 16.4551 75.8264 16.5671 76.4867 16.679C77.0369 16.7909 77.5872 16.9029 77.9174 17.0148C82.3195 18.0223 84.6306 20.2611 84.6306 23.5074C84.6306 25.2984 83.8602 26.8656 82.2094 28.0969C80.5586 29.3283 78.4676 29.9999 75.6062 29.9999C71.9745 29.9999 69.2232 28.7686 67.3523 26.4178C66.5819 25.2984 66.0316 24.179 65.8115 22.8357Z" fill="#5A5A5A"/>
<path id="Vector_4" d="M87.6035 11.9777V7.94782H90.1347V3.24634H94.5369V7.94782H101.03V11.9777H94.5369V25.5225H101.25V29.5524H90.2448V11.9777H87.6035Z" fill="#5A5A5A"/>
<path id="Vector_5" d="M107.633 26.7537C105.542 24.6268 104.441 21.9402 104.441 18.8059C104.441 15.6715 105.542 12.985 107.633 10.8581C109.724 8.73122 112.255 7.61182 115.337 7.61182C118.308 7.61182 120.949 8.73122 123.04 10.8581C125.131 12.985 126.232 15.6715 126.232 18.8059V20.2611H108.844C109.174 22.0521 109.944 23.3954 111.155 24.4029C112.365 25.4104 113.686 25.9701 115.337 25.9701C117.318 25.9701 118.858 25.5223 119.959 24.5148C120.509 24.0671 120.949 23.6193 121.28 23.0596H125.902C125.351 24.4029 124.581 25.6342 123.701 26.5298C121.39 28.8805 118.638 29.9999 115.337 29.9999C112.255 29.9999 109.724 28.9925 107.633 26.7537ZM109.064 16.679H121.61C121.39 15.2238 120.729 14.1044 119.629 13.0969C118.528 12.0894 117.098 11.6417 115.337 11.6417C113.796 11.6417 112.475 12.0894 111.375 12.9849C110.164 13.8805 109.394 15.1118 109.064 16.679Z" fill="#5A5A5A"/>
<path id="Vector_6" d="M130.743 29.5523V1.56714H135.145V25.5224H139.988V29.5523H130.743Z" fill="#5A5A5A"/>
<path id="Vector_7" d="M145.491 26.7537C143.4 24.6268 142.3 21.9402 142.3 18.8059C142.3 15.6715 143.4 12.985 145.491 10.8581C147.582 8.73122 150.114 7.61182 153.195 7.61182C156.166 7.61182 158.808 8.73122 160.899 10.8581C162.99 12.985 164.09 15.6715 164.09 18.8059V20.2611H146.812C147.142 22.0521 147.913 23.3954 149.123 24.4029C150.334 25.4104 151.654 25.9701 153.305 25.9701C155.286 25.9701 156.827 25.5223 157.927 24.5148C158.478 24.0671 158.918 23.6193 159.248 23.0596H163.87C163.32 24.4029 162.55 25.6342 161.669 26.5298C159.358 28.8805 156.607 29.9999 153.305 29.9999C150.224 29.9999 147.582 28.9925 145.491 26.7537ZM146.922 16.679H159.358C159.138 15.2238 158.478 14.1044 157.377 13.0969C156.277 12.0894 154.846 11.6417 153.085 11.6417C151.544 11.6417 150.224 12.0894 149.123 12.9849C148.023 13.8805 147.362 15.1118 146.922 16.679Z" fill="#5A5A5A"/>
<path id="Vector_8" d="M167.171 22.8357H172.013C172.233 23.3954 172.564 23.9551 173.004 24.4029C173.994 25.4104 175.425 25.9701 177.186 25.9701C178.726 25.9701 179.827 25.7462 180.487 25.2984C181.148 24.8506 181.478 24.179 181.478 23.5074C181.478 23.2835 181.368 23.0596 181.258 22.8357C181.148 22.6119 180.928 22.388 180.707 22.276C180.377 22.0522 180.157 21.9402 179.937 21.8282C179.717 21.7163 179.277 21.6044 178.837 21.4924C178.286 21.3805 177.956 21.2686 177.626 21.1566C177.296 21.0447 176.856 20.9327 176.195 20.8208C175.535 20.7088 175.095 20.5969 174.765 20.485C170.362 19.4775 168.051 17.3506 168.051 13.9924C168.051 12.3133 168.822 10.8581 170.362 9.51479C171.903 8.28344 173.884 7.61182 176.415 7.61182C179.937 7.61182 182.468 8.73122 184.229 10.97C185 11.9775 185.55 13.0969 185.77 14.3282H181.148C180.928 13.7685 180.597 13.3208 180.267 12.9849C179.277 12.0894 177.956 11.6417 176.415 11.6417C175.205 11.6417 174.214 11.8655 173.554 12.3133C172.894 12.7611 172.564 13.3208 172.564 13.9924C172.564 14.2163 172.674 14.4402 172.784 14.6641C172.894 14.8879 173.114 15.1118 173.334 15.2238C173.664 15.4476 173.884 15.5596 174.104 15.6715C174.324 15.7835 174.765 15.8954 175.205 16.0074C175.645 16.1193 176.085 16.2312 176.415 16.3432C176.746 16.4551 177.186 16.5671 177.846 16.679C178.396 16.7909 178.947 16.9029 179.277 17.0148C183.679 18.0223 185.99 20.2611 185.99 23.5074C185.99 25.2984 185.22 26.8656 183.569 28.0969C181.918 29.3283 179.827 29.9999 176.966 29.9999C173.334 29.9999 170.583 28.7686 168.712 26.4178C168.051 25.2984 167.391 24.179 167.171 22.8357Z" fill="#5A5A5A"/>
<path id="Vector_9" d="M189.181 22.8357H194.023C194.243 23.3954 194.573 23.9551 195.013 24.4029C196.004 25.4104 197.435 25.9701 199.196 25.9701C200.736 25.9701 201.837 25.7462 202.497 25.2984C203.157 24.8506 203.488 24.179 203.488 23.5074C203.488 23.2835 203.378 23.0596 203.267 22.8357C203.157 22.6119 202.937 22.388 202.717 22.276C202.387 22.0522 202.167 21.9402 201.947 21.8282C201.727 21.7163 201.287 21.6044 200.846 21.4924C200.296 21.3805 199.966 21.2686 199.636 21.1566C199.306 21.0447 198.865 20.9327 198.205 20.8208C197.545 20.7088 197.104 20.5969 196.774 20.485C192.372 19.4775 190.061 17.3506 190.061 13.9924C190.061 12.3133 190.831 10.8581 192.372 9.51479C193.913 8.28344 195.894 7.61182 198.425 7.61182C201.947 7.61182 204.478 8.73122 206.239 10.97C207.009 11.9775 207.56 13.0969 207.78 14.3282H203.157C202.937 13.7685 202.607 13.3208 202.277 12.9849C201.287 12.0894 199.966 11.6417 198.425 11.6417C197.215 11.6417 196.224 11.8655 195.564 12.3133C194.903 12.7611 194.573 13.3208 194.573 13.9924C194.573 14.2163 194.683 14.4402 194.793 14.6641C194.903 14.8879 195.124 15.1118 195.344 15.2238C195.674 15.4476 195.894 15.5596 196.114 15.6715C196.334 15.7835 196.774 15.8954 197.215 16.0074C197.655 16.1193 198.095 16.2312 198.425 16.3432C198.755 16.4551 199.196 16.5671 199.856 16.679C200.406 16.7909 200.956 16.9029 201.287 17.0148C205.689 18.0223 208 20.2611 208 23.5074C208 25.2984 207.229 26.8656 205.579 28.0969C203.928 29.3283 201.837 29.9999 198.975 29.9999C195.344 29.9999 192.592 28.7686 190.721 26.4178C190.061 25.2984 189.511 24.179 189.181 22.8357Z" fill="#5A5A5A"/>
</g>
</svg>
