<svg width="110" height="30" viewBox="0 0 110 30" fill="none" xmlns="http://www.w3.org/2000/svg">
<g id="Group 1">
<path id="Vector" d="M16.6513 0.576925H21.7811V20.1923C21.7811 23.3791 20.7363 25.8104 18.6462 27.4863C16.5834 29.162 14.0864 30 11.1551 30C8.95666 30 7.01603 29.5742 5.33327 28.7225C3.67762 27.8709 2.40201 26.6209 1.5063 24.9725L5.9847 22.3764C7.01603 24.2994 8.79378 25.261 11.318 25.261C12.9736 25.261 14.2764 24.8214 15.2263 23.9423C16.1763 23.0632 16.6513 21.8132 16.6513 20.1923V17.967C15.1042 20.0549 12.9329 21.0989 10.1373 21.0989C7.26031 21.0989 4.84471 20.0824 2.89056 18.0495C0.96352 15.989 0 13.489 0 10.5494C0 7.63736 0.977041 5.15107 2.93126 3.09068C4.88541 1.03022 7.28749 0 10.1373 0C12.9329 0 15.1042 1.04395 16.6513 3.13184V0.576925ZM6.83964 14.6291C7.92526 15.6731 9.29593 16.1951 10.9516 16.1951C12.6072 16.1951 13.9642 15.6731 15.0228 14.6291C16.1085 13.5577 16.6513 12.1978 16.6513 10.5494C16.6513 8.92859 16.1085 7.59614 15.0228 6.55219C13.9642 5.48073 12.6072 4.94508 10.9516 4.94508C9.29593 4.94508 7.92526 5.48073 6.83964 6.55219C5.78112 7.59614 5.25186 8.92859 5.25186 10.5494C5.25186 12.1978 5.78112 13.5577 6.83964 14.6291Z" fill="#222222"/>
<path id="Vector_2" d="M31.7955 4.1208C32.2846 2.80213 33.0852 1.81313 34.1979 1.1538C35.3375 0.494462 36.5996 0.164795 37.9842 0.164795V6.09888C36.383 5.90653 34.944 6.2362 33.6684 7.08788C32.4198 7.93948 31.7955 9.35432 31.7955 11.3324V21.1813H26.5439V0.576886H31.7955V4.1208Z" fill="#222222"/>
<path id="Vector_3" d="M57.6433 18.6263C55.553 20.7143 53.002 21.7582 49.9894 21.7582C46.9761 21.7582 44.425 20.7143 42.3354 18.6263C40.2728 16.511 39.2407 13.9285 39.2407 10.8791C39.2407 7.82963 40.2728 5.26096 42.3354 3.17306C44.425 1.05769 46.9761 0 49.9894 0C53.002 0 55.553 1.05769 57.6433 3.17306C59.7329 5.26096 60.7776 7.82963 60.7776 10.8791C60.7776 13.9285 59.7329 16.511 57.6433 18.6263ZM46.0403 14.9588C47.0985 16.0302 48.4151 16.566 49.9894 16.566C51.5636 16.566 52.8795 16.0302 53.9384 14.9588C54.9967 13.8873 55.5261 12.5275 55.5261 10.8791C55.5261 9.23075 54.9967 7.87086 53.9384 6.79947C52.8795 5.72802 51.5636 5.19229 49.9894 5.19229C48.4151 5.19229 47.0985 5.72802 46.0403 6.79947C45.009 7.87086 44.4929 9.23075 44.4929 10.8791C44.4929 12.5275 45.009 13.8873 46.0403 14.9588Z" fill="#222222"/>
<path id="Vector_4" d="M86.5997 0.577148H92.1769L85.7036 21.1815H80.6963L76.9511 8.69525L73.2052 21.1815H68.1979L61.7246 0.577148H67.3017L70.7624 13.2282L74.4673 0.577148H79.4342L83.1391 13.2694L86.5997 0.577148Z" fill="#222222"/>
<path id="Vector_5" d="M100.962 16.1953H110V21.1815H93.918V17.6376L102.508 5.56341H94.3257V0.577148H109.593V4.12106L100.962 16.1953Z" fill="#222222"/>
</g>
</svg>
